<svg width="174" height="44" viewBox="0 0 174 44" fill="none" xmlns="http://www.w3.org/2000/svg">
<path d="M70.0255 16.4292C68.7727 14.7299 66.4433 13.9141 64.4764 13.9141C60.0382 13.9141 56 17.4253 56 22.9778C56 28.5304 60.0265 32.08 64.4764 32.08C66.3974 32.08 68.771 31.2258 70.0255 29.5273V30.0111C70.0255 34.4909 68.0586 36.2286 64.9516 36.2286C63.0983 36.2286 61.321 35.1274 60.5802 33.5324L56.5412 35.2692C58.022 38.4868 61.245 40.5565 64.9542 40.5565C71.0636 40.5565 74.8746 37.0444 74.8746 29.4989V14.3695H70.0305L70.0255 16.4292ZM65.4077 27.5719C62.9656 27.5719 60.9318 25.503 60.9318 22.9879C60.9318 20.4343 62.9656 18.4414 65.4077 18.4414C67.6627 18.4414 69.8835 20.3209 69.8835 22.9879C69.8818 25.6165 67.7738 27.5811 65.4077 27.5719Z" fill="#26292E"/>
<path d="M87.9856 13.9238C83.063 13.9238 78.6924 17.5493 78.6924 23.026C78.6924 28.4651 83.063 32.0906 87.9856 32.0906C92.9083 32.0906 97.2764 28.4651 97.2764 23.026C97.2764 17.5493 92.9083 13.9238 87.9856 13.9238ZM87.9856 27.5725C85.5819 27.5725 83.6142 25.693 83.6142 23.026C83.6142 20.3306 85.5819 18.442 87.9856 18.442C90.3893 18.442 92.3571 20.3306 92.3571 23.026C92.3571 25.693 90.3902 27.5816 87.9856 27.5725V27.5725Z" fill="#26292E"/>
<path d="M111.504 13.9328C109.547 13.9328 107.181 14.7111 105.954 16.4479V4.98242H101.11V31.644H105.954V29.4993C107.171 31.2737 109.537 32.0904 111.504 32.0904C115.942 32.0904 119.981 28.5307 119.981 22.9882C119.981 17.4456 115.942 13.9328 111.504 13.9328ZM110.563 27.5722C108.197 27.5722 106.087 25.6168 106.087 22.9882C106.087 20.3304 108.301 18.4417 110.563 18.4417C113.015 18.4417 115.011 20.4347 115.011 22.9882C115.011 25.5034 113.015 27.5814 110.563 27.5722Z" fill="#26292E"/>
<path d="M126.044 26.0254C124.38 26.0254 122.975 27.2876 122.975 28.986C122.975 30.7229 124.38 31.9759 126.044 31.9892C127.744 31.9892 129.189 30.7262 129.189 28.986C129.189 27.2776 127.744 26.0254 126.044 26.0254Z" fill="#26292E"/>
<path d="M143.823 13.9238C141.865 13.9238 139.499 14.7405 138.274 16.4774V14.3701H133.43V40.1108H138.274V29.4995C139.49 31.2739 141.856 32.0906 143.823 32.0906C148.26 32.0906 152.299 28.5694 152.299 22.9884C152.299 17.4834 148.27 13.933 143.823 13.9238ZM142.892 27.5725C140.637 27.5725 138.416 25.6538 138.416 23.026C138.416 20.3982 140.526 18.442 142.892 18.442C145.344 18.442 147.339 20.4733 147.339 23.026C147.339 25.5787 145.344 27.5816 142.892 27.5725V27.5725Z" fill="#26292E"/>
<path d="M173.29 22.7223C173.29 17.4359 169.252 13.9238 164.292 13.9238C159.369 13.9238 155.112 17.4451 155.112 23.026C155.112 28.3508 158.998 32.0906 164.33 32.0906C167.371 32.0906 170.373 30.7992 171.998 28.6169L169.187 25.7689C168.611 26.4044 167.909 26.9131 167.125 27.2628C166.341 27.6125 165.494 27.7955 164.635 27.8002C162.336 27.8002 160.71 26.614 160.188 24.5826H173.188C173.257 23.965 173.292 23.3439 173.29 22.7223ZM160.186 21.441C160.7 19.1052 162.41 18.1099 164.406 18.1099C166.591 18.1099 168.254 19.4096 168.406 21.441H160.186Z" fill="#26292E"/>
<path d="M20.571 38.2861L20.5877 38.2027C20.5951 38.1708 20.6063 38.14 20.6211 38.1109C20.4827 37.997 20.3136 37.9266 20.1352 37.9088C19.9568 37.891 19.777 37.9265 19.6188 38.0108C19.6434 38.0782 19.6602 38.1482 19.669 38.2194C19.7069 38.4585 19.6742 38.7034 19.5748 38.9242C19.4754 39.145 19.3136 39.332 19.1094 39.4623C19.2069 39.6291 19.3475 39.7667 19.5164 39.8606C19.6854 39.9545 19.8765 40.0014 20.0699 39.9962H20.0782C20.5543 39.9629 20.7881 39.7627 20.9385 39.5291C20.7631 39.3706 20.4457 38.9785 20.571 38.2861Z" fill="#26292E"/>
<path d="M15.6179 36.8516C15.9519 36.7932 16.1858 36.6597 16.3361 36.4595C16.5022 36.2424 16.5851 35.9732 16.57 35.7004C16.5559 35.4977 16.496 35.3009 16.3946 35.1248C16.518 35.2519 16.6195 35.3985 16.6953 35.5586C16.7599 35.7063 16.7967 35.8647 16.8038 36.0257C16.8372 36.0508 16.8707 36.0674 16.9041 36.0925H16.9124C17.1346 36.2119 17.3916 36.2502 17.639 36.2009C17.8681 36.1538 18.0742 36.0302 18.2237 35.8505C18.2237 35.8494 18.2235 35.8484 18.223 35.8473C18.2226 35.8463 18.222 35.8454 18.2212 35.8446C18.2205 35.8439 18.2195 35.8433 18.2185 35.8428C18.2175 35.8424 18.2164 35.8422 18.2153 35.8422H18.207C18.0721 35.6451 17.9967 35.4135 17.9898 35.1748V35.1581C17.9683 34.9257 18.0117 34.6918 18.1151 34.4824C18.0483 34.4824 17.9815 34.4908 17.923 34.4908C17.346 34.5454 16.7772 34.6658 16.2276 34.8495L16.2192 34.8662L16.2025 34.8578C15.5579 35.0624 14.9343 35.3277 14.34 35.6503C14.3317 35.7649 14.3401 35.8802 14.3651 35.9924C14.4186 36.2304 14.5474 36.4449 14.7324 36.6041C14.9174 36.7634 15.1488 36.8589 15.3924 36.8766L15.4592 36.885C15.5093 36.8766 15.5594 36.8766 15.6012 36.8683L15.6179 36.8516Z" fill="#26292E"/>
<path d="M23.8528 36.55C23.4686 36.5917 23.1847 36.7336 23.026 36.9504C22.8996 37.1356 22.8273 37.3522 22.8172 37.5761C22.8193 37.8452 22.8732 38.1114 22.9759 38.3603C22.8392 38.1823 22.7346 37.9818 22.6668 37.768C22.6251 37.5761 22.4831 37.2091 22.8506 36.7169C22.9381 36.5926 23.0497 36.4872 23.1789 36.4069C23.308 36.3267 23.452 36.2732 23.6023 36.2497C23.5373 36.0214 23.4026 35.8191 23.2169 35.671C23.0312 35.523 22.8039 35.4365 22.5666 35.4238C22.6217 35.691 22.5999 35.9684 22.5038 36.2237C22.4078 36.4791 22.2413 36.7021 22.0237 36.867C21.8125 37.0148 21.5631 37.0987 21.3055 37.1089C20.9962 37.1238 20.6916 37.0293 20.4452 36.842C20.3286 36.7501 20.2322 36.6354 20.1618 36.5048C20.0914 36.3742 20.0486 36.2306 20.036 36.0829C19.8832 36.2203 19.6953 36.3128 19.4931 36.3498C19.3348 36.3665 19.1753 36.3665 19.017 36.3498C18.8189 36.3068 18.6315 36.2246 18.4658 36.1079C18.2721 36.3355 18.0073 36.4912 17.7141 36.55C17.6457 36.5666 17.5756 36.575 17.5053 36.575C17.2493 36.5916 16.994 36.5337 16.7703 36.4082C16.7363 36.5036 16.6885 36.5936 16.6283 36.6752C16.4112 36.9671 16.0688 37.1507 15.601 37.2091C15.5926 37.3173 15.5926 37.4261 15.601 37.5344C15.6192 37.6723 15.6657 37.805 15.7376 37.9241C15.8094 38.0432 15.9051 38.1463 16.0187 38.2268C16.1846 38.3458 16.3824 38.4126 16.5866 38.4187H16.6367L16.6618 38.3936H16.6785C16.7121 38.395 16.7457 38.3922 16.7787 38.3853C16.8121 38.377 16.8455 38.377 16.8789 38.3686C16.987 38.3407 17.0909 38.2987 17.1879 38.2435V38.2518C17.0937 38.3125 16.9889 38.355 16.8789 38.377C16.9913 38.3543 17.0987 38.3119 17.1963 38.2518V38.2435C17.2312 38.2205 17.2646 38.1954 17.2965 38.1684V38.1684C17.3763 38.1059 17.4442 38.0296 17.4969 37.9432C17.6313 37.7297 17.6818 37.4742 17.6389 37.2257L17.6473 37.2174C17.639 37.1777 17.6278 37.1387 17.6139 37.1006C17.5819 37.0033 17.5369 36.9107 17.4802 36.8253C17.5766 36.9118 17.6584 37.0132 17.7225 37.1256V37.1256C17.7409 37.1552 17.7576 37.1859 17.7726 37.2174C17.7769 37.1674 17.7769 37.1172 17.7726 37.0672L17.7809 37.0589C17.7862 37.1172 17.7862 37.1758 17.7809 37.2341C17.8514 37.3735 17.8853 37.5286 17.8794 37.6847C17.8736 37.8408 17.8282 37.9929 17.7475 38.1267C17.642 38.2921 17.4952 38.4272 17.3216 38.5188C17.3416 38.6891 17.4051 38.8515 17.506 38.9902C17.6069 39.129 17.7419 39.2396 17.8978 39.3113C18.1651 39.4364 18.566 39.4114 18.875 39.2446L18.9168 39.2195C19.3678 38.9275 19.4346 38.5271 19.4179 38.3102C19.4077 38.0899 19.3357 37.877 19.2102 37.6955C19.0847 37.5141 18.9107 37.3716 18.708 37.2841V37.2758C18.8577 37.2913 19.0024 37.3388 19.1321 37.415C19.2618 37.4913 19.3735 37.5946 19.4597 37.7179C19.6734 37.613 19.911 37.5663 20.1485 37.5824C20.3861 37.5985 20.6152 37.6769 20.8127 37.8097C20.9964 37.5928 21.2888 37.426 21.7314 37.4009C21.8734 37.4009 22.1657 37.4176 22.3829 37.5594C22.2654 37.5304 22.1447 37.5164 22.0237 37.5177C21.1301 37.5511 20.9547 38.1768 20.9213 38.3019C20.8294 38.8274 21.0382 39.1528 21.1635 39.2946L21.2052 39.328C21.3542 39.4572 21.5343 39.5455 21.7278 39.584C21.9213 39.6226 22.1215 39.6101 22.3087 39.5477C22.4958 39.4854 22.6635 39.3754 22.7952 39.2286C22.9268 39.0819 23.0179 38.9033 23.0594 38.7107L23.0928 38.5605L23.2181 38.6439C23.3455 38.7255 23.488 38.7809 23.6372 38.8067C23.7863 38.8324 23.9392 38.8282 24.0867 38.7941C24.3579 38.7325 24.5972 38.5738 24.7593 38.348C24.9214 38.1221 24.9949 37.8448 24.9661 37.5685C24.9373 37.2921 24.8082 37.0358 24.603 36.8482C24.3978 36.6605 24.131 36.5544 23.8528 36.55V36.55Z" fill="#26292E"/>
<path d="M20.3453 36.5176C20.4513 36.6063 20.5732 36.6743 20.7044 36.7178C20.7044 36.7178 21.2891 36.9847 21.832 36.6093C22.1243 36.4091 22.3581 35.9086 22.2078 35.358L22.141 35.3246C21.0712 34.7959 19.9011 34.5002 18.7083 34.457H18.4995C18.3657 34.6526 18.3037 34.8884 18.3241 35.1244V35.1494C18.3309 35.375 18.4138 35.5917 18.5593 35.7643C18.7048 35.937 18.9045 36.0554 19.1259 36.1004C19.3509 36.1572 19.5884 36.138 19.8014 36.046C20.0143 35.954 20.1909 35.7942 20.3035 35.5916L20.3286 35.5582C20.2809 35.7206 20.2046 35.8732 20.1031 36.0087L20.0947 36.017C20.078 36.0337 20.0697 36.0504 20.053 36.0671C20.0591 36.1046 20.0704 36.1411 20.0864 36.1755C20.1449 36.3424 20.2451 36.4174 20.3453 36.5176Z" fill="#26292E"/>
<path d="M16.8708 38.377C16.8457 38.3853 16.8122 38.3853 16.7871 38.3937C16.8155 38.3914 16.8436 38.3857 16.8708 38.377Z" fill="#26292E"/>
<path d="M30.6771 30.4446C30.5267 30.0192 30.1091 29.4019 29.466 29.235C29.2823 29.0968 29.0671 29.0062 28.8398 28.9713C28.6125 28.9363 28.38 28.9582 28.1631 29.0348C27.952 29.0307 27.7438 29.0846 27.5612 29.1905C27.3786 29.2964 27.2286 29.4503 27.1275 29.6355C27.0553 29.6907 26.9907 29.7552 26.9354 29.8273C26.8352 29.9775 26.7349 30.2444 26.8519 30.6449C26.8602 31.1621 27.1442 31.4541 27.4282 31.5625C27.7539 31.7127 28.1047 31.5542 28.1715 31.5208L28.4972 31.3539L28.3135 31.0369C28.2511 30.9226 28.2087 30.7985 28.1882 30.6699C28.1875 30.6225 28.1903 30.5751 28.1965 30.5281C28.236 30.4848 28.2845 30.4506 28.3385 30.428L28.3469 30.4196C28.4555 30.3779 28.6392 30.4196 28.7645 30.4613C28.814 30.639 28.9057 30.8021 29.0317 30.9368C28.9371 31.1477 28.8805 31.3737 28.8647 31.6042C28.6141 31.6876 28.4805 31.9045 28.4053 32.063C28.3411 32.0799 28.2793 32.1052 28.2216 32.1381C28.113 32.1631 28.0295 32.1715 27.637 32.1298H27.6119L27.5618 32.1214C27.2945 32.0964 26.9437 31.9296 26.8268 31.8628L26.8101 31.8545C26.7851 31.8378 24.4966 30.5281 23.1185 29.7439L23.0935 29.7272C22.6174 29.477 21.4983 28.9013 20.045 28.9597C18.976 28.9848 17.7816 29.4519 17.0049 30.1443L16.746 30.3779C16.2699 30.4697 15.9108 30.5614 15.8857 30.5614L15.6435 30.6198L15.5683 31.5375C15.3005 31.6432 15.0385 31.7629 14.7833 31.8962L14.6329 31.9796C14.6246 31.9796 14.6246 31.988 14.6162 31.988V31.9796C14.614 31.9796 14.6119 31.9805 14.6103 31.9821C14.6088 31.9836 14.6079 31.9857 14.6079 31.988L14.4993 32.0463L14.4909 32.2466C14.4909 32.3133 14.4826 32.5219 14.4993 32.7554L14.8751 32.6053L14.967 32.5636L15.1758 32.4885L15.4013 32.4217C16.5789 32.0547 18.2326 31.9045 19.594 32.3634C20.7132 32.7387 21.2644 33.2226 21.7572 33.6397C21.849 33.7231 21.9409 33.7982 22.0328 33.8733C21.4816 33.5146 20.496 32.9306 19.4771 32.6386C18.4581 32.3467 17.0299 32.33 15.6769 32.7471C15.6769 32.7471 15.4765 32.8138 15.1925 32.9223V32.9139C15.1758 32.9223 15.1675 32.9223 15.1591 32.9306L15.0338 32.9807C14.6981 33.1049 14.3716 33.2527 14.0566 33.4228L14.065 33.5897C14.097 34.0579 14.1611 34.5234 14.2571 34.9828L14.2821 35.0829C14.2821 35.0807 14.283 35.0786 14.2846 35.077C14.2862 35.0754 14.2883 35.0746 14.2905 35.0746C14.2988 35.133 14.3072 35.1663 14.3072 35.1663C14.3337 35.1587 14.359 35.1475 14.3824 35.133V35.133C14.683 34.9911 15.844 34.4656 16.6708 34.2821C17.1302 34.1819 17.4977 34.1069 17.8651 34.0568H17.8818C17.9289 34.0501 17.9764 34.0473 18.0238 34.0485C18.0216 34.0485 18.0195 34.0476 18.0179 34.046C18.0164 34.0445 18.0155 34.0423 18.0155 34.0401H18.0238C18.0249 34.0401 18.026 34.0403 18.027 34.0408C18.028 34.0412 18.029 34.0418 18.0297 34.0426C18.0305 34.0433 18.0311 34.0443 18.0315 34.0453C18.032 34.0463 18.0322 34.0474 18.0322 34.0485C18.0823 34.0485 18.1408 34.0401 18.1909 34.0401H18.3412L18.3245 34.0234L18.3329 34.0318H18.6252C18.6274 34.0318 18.6295 34.0309 18.6311 34.0293C18.6326 34.0278 18.6335 34.0257 18.6335 34.0234H18.6669C18.7003 34.0318 18.7505 34.0318 18.7922 34.0401C18.8924 34.0401 18.9927 34.0485 19.0845 34.0568C19.1179 34.0568 19.143 34.0652 19.1764 34.0652C20.0826 34.1618 20.9724 34.3749 21.824 34.6992C21.8741 34.7158 21.9242 34.7409 21.9743 34.7576C22.0578 34.7909 22.1664 34.8326 22.1831 34.841L22.3418 34.9077L22.5506 34.5323C23.3775 34.866 25.5991 35.7086 26.7934 35.6835C27.0228 35.7179 27.2548 35.7318 27.4866 35.7252C27.9255 35.7211 28.3605 35.6421 28.7728 35.4917C29.9672 35.2497 30.652 34.0985 30.8107 33.598C31.2033 33.1225 31.2784 32.2466 31.1114 31.6626C31.0863 31.2956 31.0112 30.7867 30.6771 30.4446ZM27.9794 34.1486C27.8792 34.8326 27.6119 35.0996 27.6119 35.0996C27.6119 35.0996 27.7455 34.549 27.5451 33.5646C27.4789 33.2808 27.3779 33.0062 27.2444 32.7471L27.8959 32.8555C27.9042 32.8555 28.113 33.2393 27.9794 34.1486ZM29.9505 31.9462C29.8149 31.8835 29.6717 31.8387 29.5245 31.8128C29.5258 31.6921 29.5398 31.5718 29.5663 31.4541C29.8071 31.4866 30.0304 31.5981 30.201 31.7711C30.3587 31.9476 30.4832 32.151 30.5685 32.3717C30.3855 32.1991 30.177 32.0557 29.9505 31.9462V31.9462Z" fill="#26292E"/>
<path d="M14.7578 5.17575C15.0835 5.70965 15.451 6.04333 15.877 6.17681C15.925 6.25785 15.978 6.33586 16.0357 6.41039C15.7926 6.41558 15.5512 6.45202 15.3174 6.51884C15.7517 6.88589 16.2027 7.13616 16.7289 7.16119C16.7873 7.21124 16.8458 7.26129 16.9126 7.31135C16.7274 7.32812 16.5433 7.35598 16.3614 7.39477C16.8792 7.86193 17.4639 8.07048 17.9399 7.97872C18.0401 8.02877 18.1404 8.07883 18.2489 8.12888C18.1487 8.17893 18.0401 8.23733 17.9399 8.29572C18.3909 8.46257 18.8085 8.5293 19.1593 8.48759C19.8609 8.72952 20.4873 8.89636 20.4873 8.89636C20.4873 8.89636 21.8486 9.08823 22.1243 9.68053C22.5502 9.02984 23.043 8.93807 23.21 8.89636C23.8782 8.7462 24.3876 8.62941 24.8637 8.47925C25.2247 8.48798 25.5835 8.41972 25.9161 8.27904C25.8409 8.22899 25.7657 8.17893 25.6989 8.13722C25.8193 8.07973 25.9364 8.01568 26.0497 7.94535C26.6176 7.97038 27.0853 7.68674 27.5948 7.33637C27.4018 7.29692 27.2065 7.26906 27.0102 7.25295C27.0519 7.21124 27.102 7.16953 27.1438 7.12782C27.67 7.07777 28.1126 6.78579 28.5219 6.38536C28.297 6.31974 28.0623 6.29432 27.8287 6.31028C27.8621 6.25189 27.9038 6.19349 27.9372 6.1351C28.1866 6.06405 28.4164 5.93689 28.609 5.76336C28.8015 5.58983 28.9517 5.37455 29.048 5.13404C28.7925 5.16081 28.5387 5.20259 28.288 5.25917C28.3128 5.16905 28.3295 5.07693 28.3381 4.98388C28.4992 4.85449 28.6309 4.69238 28.7245 4.50829C28.8181 4.32419 28.8715 4.12233 28.881 3.91608C28.714 4.00784 28.5302 4.08292 28.3465 4.16634C28.3275 4.02018 28.2996 3.87532 28.263 3.73255C28.4049 3.45726 28.4133 3.12357 28.288 2.68978C28.1639 2.77271 28.044 2.8618 27.9289 2.95673C27.8559 2.83211 27.775 2.71229 27.6867 2.59801C27.7785 2.2977 27.67 1.91396 27.3609 1.40508C27.2006 1.52922 27.0647 1.68195 26.96 1.85556C26.8515 1.7638 26.7345 1.68037 26.6093 1.58861C26.5675 1.21321 26.2585 0.854498 25.6488 0.470758C25.6067 0.648363 25.5871 0.830524 25.5903 1.013C25.4734 0.962946 25.3481 0.904551 25.2228 0.86284C25.0558 0.462416 24.6466 0.170439 24.0786 0.0703332C24.0905 0.225743 24.1185 0.379503 24.1621 0.529153C23.9998 0.486983 23.8353 0.453566 23.6694 0.429047C23.3687 0.112044 22.8509 -0.0464574 22.2328 0.0119378C22.2789 0.107461 22.3319 0.199473 22.3915 0.28723C22.2161 0.278888 22.0407 0.270546 21.8653 0.278888C21.7234 0.278888 21.5897 0.28723 21.4477 0.28723C21.5017 0.196142 21.5491 0.101362 21.5897 0.00359545C20.9633 -0.0130889 20.4873 0.128728 20.1866 0.429047C20.0234 0.453564 19.8617 0.486982 19.7022 0.529153C19.7427 0.37692 19.754 0.218424 19.7356 0.0619908C19.1259 0.28723 18.7751 0.529153 18.6248 0.86284C18.4995 0.912893 18.3742 0.962946 18.2573 1.013C18.2489 0.871182 18.2322 0.712681 18.2072 0.529153C17.6476 0.846156 17.3219 1.20487 17.2467 1.56358C17.1083 1.65415 16.9745 1.7516 16.8458 1.85556C16.751 1.71169 16.6356 1.58241 16.5034 1.47182C16.2111 1.88893 16.0941 2.26433 16.1442 2.5563C16.0691 2.65641 15.9939 2.75652 15.9271 2.85662C15.797 2.76568 15.6602 2.6848 15.5178 2.6147C15.4093 3.01512 15.4176 3.34047 15.568 3.60742C15.5163 3.75685 15.4772 3.91032 15.451 4.06624C15.2978 4.01053 15.1417 3.96318 14.9833 3.92442C15.0414 4.25183 15.1921 4.55579 15.4176 4.80035C15.4289 4.93489 15.4484 5.06862 15.4761 5.20077C15.2385 5.16371 14.9974 5.15531 14.7578 5.17575V5.17575ZM21.9238 2.64807C23.8949 2.63973 25.2228 3.77426 25.2312 4.58345C25.2395 5.25083 24.4795 5.69296 23.1014 6.06002C22.45 6.2352 22.2579 6.51884 22.024 6.76076C21.9322 6.6106 21.6315 6.32697 21.0051 6.18515C19.5184 5.85981 18.5413 5.29254 18.5413 4.61682C18.5413 3.80763 19.9527 2.65641 21.9238 2.64807Z" fill="#26292E"/>
<path d="M40.5238 4.6582L30.5766 10.4644L30.5682 10.456L30.1256 10.7063C29.1604 11.2086 28.1239 11.5602 27.0521 11.7491C24.5131 12.1578 22.5921 10.5561 22.5754 10.5394L22.116 10.1307L21.6734 10.5561C21.6149 10.6145 20.1951 11.9159 17.4055 11.8075C16.3114 11.7657 15.1839 11.2819 14.5575 10.9649L3.69157 4.69157L3.67487 13.1756L0 11.0984L0.0584636 30.7359V30.7692C0.158687 32.6379 0.275615 34.1979 0.751678 35.8079C1.29456 37.6599 2.27174 39.3033 3.74169 40.8299C4.71002 41.8258 5.86882 42.6173 7.14929 43.1574C8.29085 43.6224 9.50149 43.8958 10.7323 43.9666C11.058 43.9916 11.3754 43.9999 11.6928 43.9999C13.6638 43.9999 15.518 43.6162 17.0464 43.3075C17.7563 43.1657 18.4078 43.0322 18.9172 42.9738C20.6711 42.9405 21.3059 43.7246 21.7402 43.8915C21.8437 43.9529 21.9622 43.9847 22.0826 43.9832C22.1103 43.979 22.1385 43.979 22.1661 43.9832C22.2772 43.9701 22.3833 43.93 22.4752 43.8665L22.4835 43.8748C22.9345 43.5661 23.2853 43.3492 23.6361 43.2074C25.1144 42.6235 26.4173 42.9488 28.071 43.3659C28.355 43.441 28.6473 43.5077 28.948 43.5828L28.9814 43.5912C30.1256 43.783 31.4034 43.9666 32.7147 43.9666C33.4646 43.967 34.2132 43.9056 34.953 43.783C37.0828 43.3743 38.9536 42.3148 40.6741 40.5379C42.1274 39.0363 43.0294 37.6015 43.5221 36.0415C43.9648 34.615 44.04 33.1968 44.1318 31.5534L44.1485 31.2447L44.1903 11.1317L40.4904 13.234L40.5238 4.6582ZM39.2125 10.773L39.2042 13.9848L36.0638 15.8701L34.8862 14.7105L34.2431 14.0348L39.2125 10.773ZM26.2169 13.1672C26.5693 13.1672 26.9212 13.1393 27.2692 13.0838C28.3306 12.9033 29.362 12.5777 30.3344 12.1161L35.1368 16.8461C34.4853 17.5636 33.3745 19.0234 32.8984 20.9838C32.6052 21.0578 32.3259 21.179 32.0716 21.3426L31.7208 21.5761L31.9964 21.8931C32.1868 22.1043 32.4203 22.2722 32.6813 22.3853C32.6618 22.6491 32.659 22.9138 32.6729 23.1778C32.7063 24.2456 32.8984 25.3552 33.149 26.3896C31.637 26.1059 30.1022 25.9608 28.5638 25.9558H28.4802V23.3947H28.4886C28.4898 23.383 28.4869 23.3712 28.4802 23.3614C28.5638 22.9276 29.0064 22.8692 29.1066 22.8525L29.0732 22.4854L29.0983 22.8525L29.0398 22.1184C28.8436 22.1339 28.6529 22.1908 28.4802 22.2852V21.743C28.5972 21.2591 29.5911 21.1841 29.5994 21.1841L29.566 20.4416C29.1907 20.4747 28.8237 20.5706 28.4802 20.7252V19.866V19.8326C28.5053 19.7909 28.5304 19.7492 28.5638 19.6908C28.8542 19.7438 29.153 19.7293 29.4369 19.6483C29.7208 19.5672 29.9822 19.4219 30.2007 19.2236C30.5418 18.9061 30.7655 18.4828 30.8355 18.0224L30.8856 17.6553L30.5181 17.6053C30.2227 17.5792 29.925 17.6138 29.6434 17.7071C29.3619 17.8004 29.1025 17.9502 28.8811 18.1475C28.6048 18.3933 28.3581 18.6705 28.1462 18.9734C27.8723 18.5546 27.4956 18.2129 27.0521 17.9807C26.6825 17.781 26.2695 17.675 25.8494 17.672L25.4318 17.6887L25.4986 18.0975C25.5069 18.1475 25.699 19.3321 26.6595 19.6574C26.9899 19.7761 27.3494 19.7878 27.6868 19.6908C27.7119 19.7659 27.7286 19.8243 27.7369 19.8577V20.7252C27.3966 20.5619 27.028 20.4656 26.6512 20.4416L26.6177 21.1841C26.8193 21.1997 27.0183 21.2389 27.2107 21.3009C27.5198 21.4093 27.6952 21.5595 27.7369 21.743V22.2852C27.5624 22.1967 27.3724 22.1428 27.1773 22.1267L27.1189 22.8608C27.1439 22.8608 27.6617 22.9109 27.7369 23.3864V25.9641C25.4067 26.0142 23.728 26.3228 22.8009 26.5397V22.5438C22.9432 22.5784 23.0888 22.5979 23.2352 22.6022H23.2603C23.8198 22.6022 24.4128 22.1601 24.4713 22.11L24.8054 21.8514L24.5047 21.5511C24.4796 21.5344 23.9451 21.0005 23.16 21.0005C23.0385 20.9996 22.9175 21.0165 22.8009 21.0506V12.2913C23.6027 12.7084 24.7887 13.1672 26.2169 13.1672ZM17.3638 13.1589C17.489 13.1672 17.6227 13.1672 17.7479 13.1672C19.4016 13.1672 20.6377 12.7418 21.4562 12.3163V26.5481H21.4395C20.447 26.3187 19.4395 26.1598 18.4245 26.0726C18.3994 25.6555 18.3075 24.571 18.3075 24.571C18.3075 24.571 18.3994 23.6867 18.4245 23.5532C18.6333 22.9276 18.7502 22.4604 18.8003 22.3687C19.0667 22.2235 19.3067 22.0345 19.5102 21.8097C19.7107 21.5595 19.7942 21.4844 19.861 21.0756L20.0197 19.7075L19.8359 16.2121L20.9217 16.0703L21.1305 15.77L21.1472 15.4363L19.7023 14.4102C19.7023 14.4102 19.0843 14.6188 18.9423 14.6605C18.65 14.5103 18.1238 14.4269 17.5809 14.844C17.6394 15.0442 17.8231 15.2361 18.0486 15.3612C18.3326 15.5281 18.8504 15.5197 18.8504 15.5197C18.8504 15.5197 18.8588 15.6532 18.8588 15.7783C18.9089 17.2799 18.8838 18.94 18.8838 18.94L17.3972 19.0401L13.5887 18.8733L12.244 20.1413L12.077 20.6001C11.9261 21.0215 11.9441 21.4847 12.1271 21.8931L12.7869 21.1757L13.0541 22.4437L12.695 24.1789L12.9456 24.8713C12.9456 24.8713 13.1961 25.497 13.43 26.1143C12.6034 26.1964 11.7831 26.333 10.9745 26.5231C11.3002 25.2717 11.3837 24.5877 11.4004 24.4208C11.4589 24.0871 11.8932 21.3676 11.0246 19.3905C10.6913 18.6288 10.2558 17.916 9.73005 17.2716C9.61557 17.0683 9.4872 16.8732 9.34586 16.6876L9.63818 16.3706L13.8392 12.1161C14.5408 12.4832 15.9439 13.1005 17.3638 13.1589ZM17.7563 26.0225C17.6897 26.0156 17.6228 26.0128 17.5559 26.0142C17.5141 25.3802 17.4222 23.937 17.4222 23.937L17.489 23.7618L17.631 22.9609L17.606 23.8369V24.1288L17.7563 26.0225ZM16.9545 25.9808C16.7457 25.9725 16.5369 25.9725 16.3281 25.9725C15.9523 25.9725 15.5931 25.9808 15.2424 25.9892C15.0753 25.4469 14.9584 24.9464 14.7997 24.4292C14.7496 24.279 14.8582 23.5783 14.8582 23.5783L15.5597 22.4187L16.1277 22.6273L16.6538 22.5272L16.6037 24.0621L16.9545 25.9808ZM14.5826 26.0058V26.0142C14.3905 26.0225 14.2067 26.0392 14.0313 26.0559C13.7975 25.3802 13.4801 24.1789 13.4801 24.1789L14.1148 22.4938L14.0397 24.3708C14.0397 24.3708 14.4573 25.4469 14.5826 26.0058V26.0058ZM4.98613 10.8815L10.0808 14.0014L8.31857 15.795L4.97778 13.9347L4.98613 10.8815ZM7.72558 32.8297L2.57241 29.8015C2.02953 29.3844 1.38643 28.6587 1.36137 27.5742C1.36306 27.4349 1.35748 27.2957 1.34467 27.1571L1.32796 20.9004C2.20492 21.3843 8.31022 24.7879 9.75511 25.8557C9.50455 26.8901 9.05354 28.4334 8.25175 30.5106C7.97296 31.2566 7.79598 32.0366 7.72558 32.8297V32.8297ZM33.6334 38.1521C31.8461 39.687 30.0922 40.6047 26.434 40.7548C24.062 40.8466 22.8343 41.6391 22.1077 42.3565C21.5147 41.7559 20.2786 40.8299 17.6895 40.7548C15.1505 40.6797 13.4801 40.004 12.5196 39.4534C11.509 38.8695 11.058 38.2939 11.033 38.2605L11.0079 38.2105L10.9661 38.1687C10.403 37.5671 9.94806 36.8728 9.62148 36.1166C8.8865 34.4481 8.8531 32.7213 9.5129 30.9945C9.97226 29.7848 10.323 28.7588 10.5903 27.8912H33.5749C33.9103 28.9568 34.3091 30.0014 34.7693 31.0195C35.07 31.8746 35.2499 32.7675 35.3038 33.6723C35.404 35.6077 34.8444 37.1093 33.6334 38.1521V38.1521ZM42.8874 20.8921L42.8707 27.6242C42.8373 28.8505 42.094 29.5262 41.6095 29.8432L41.3506 29.9934C41.2504 30.0435 41.1836 30.0685 41.1836 30.0685L41.2254 30.0601L36.5566 32.7547C36.4539 31.9864 36.2691 31.2312 36.0054 30.5023L35.9887 30.4606C35.9803 30.4272 34.9697 28.2833 34.3934 25.814L42.8874 20.8921Z" fill="#26292E"/>
<path d="M23.3185 19.2824L22.9844 19.4159L23.1013 19.7579C23.2164 20.0315 23.3919 20.2756 23.6146 20.472C23.8373 20.6685 24.1015 20.8122 24.3875 20.8924C24.5532 20.9392 24.7248 20.9616 24.897 20.9592C25.3202 20.9476 25.7371 20.8541 26.1247 20.6839L26.5089 20.5004L26.25 20.1083C26.0746 19.833 25.7823 19.3742 24.9721 19.1239C24.304 18.9153 23.4187 19.2407 23.3185 19.2824Z" fill="#26292E"/>
<path d="M31.2699 19.2741C30.6268 19.4409 30.0922 20.15 30.0338 20.2334L29.7832 20.5754L30.1507 20.7757C30.492 20.9501 30.8698 21.0415 31.2532 21.0426C31.454 21.0471 31.6543 21.019 31.8461 20.9592C32.6145 20.7339 32.982 19.9581 32.9987 19.9248L33.1574 19.5911L32.7816 19.4159C32.5059 19.2824 32.0382 19.0655 31.2699 19.2741Z" fill="#26292E"/>
<path d="M28.0957 18.4729L28.363 18.2393C28.3881 18.2226 28.9727 17.7221 29.0145 16.7293C29.0479 15.8951 28.4131 15.3445 28.3881 15.3195L28.1124 15.0859L27.8702 15.3529C27.8619 15.3696 27.8452 15.3779 27.8368 15.3946C27.6545 15.5712 27.5096 15.7825 27.4106 16.0161C27.3116 16.2497 27.2606 16.5007 27.2605 16.7544C27.2355 17.5469 27.8285 18.1892 27.8535 18.2143L28.0957 18.4729Z" fill="#26292E"/>
<path d="M31.3282 18.7731C31.4591 18.807 31.5938 18.8239 31.7291 18.8231C32.0218 18.8257 32.3099 18.7509 32.5643 18.6062C33.0738 18.3059 33.1907 17.722 33.2074 17.6552L33.2742 17.2882L32.8817 17.2131C32.5092 17.1226 32.116 17.1825 31.7876 17.3799C31.7124 17.4216 31.3365 17.6552 31.0776 18.2725L30.9189 18.6646L31.3282 18.7731Z" fill="#26292E"/>
<path d="M23.8118 18.6069C23.9742 18.6809 24.1511 18.718 24.3296 18.7153C24.5466 18.7084 24.761 18.6661 24.9644 18.5902L25.2985 18.4317L25.1314 18.073C24.9837 17.7192 24.7057 17.4355 24.3547 17.2805C24.2795 17.2471 23.8703 17.0719 23.2188 17.2221L22.8096 17.3138L22.9599 17.7059C23.1219 18.1015 23.4256 18.4227 23.8118 18.6069V18.6069Z" fill="#26292E"/>
<path d="M29.783 17.331C30.0828 17.3276 30.3709 17.2148 30.5932 17.014C30.9189 16.7303 30.9189 16.2882 30.9189 16.2381L30.9105 15.8711L30.518 15.8794C30.2437 15.8792 29.979 15.9802 29.7747 16.1631C29.5074 16.3883 29.4239 16.8054 29.4072 16.8888L29.332 17.3059L29.7496 17.331H29.783Z" fill="#26292E"/>
<path d="M26.4253 17.2127L26.7928 17.2627L26.8512 16.879C26.892 16.6295 26.8384 16.3738 26.7009 16.1615C26.5339 15.8946 26.1747 15.7528 26.0995 15.7278L25.6987 15.5859L25.6068 15.9947C25.5521 16.2737 25.6059 16.563 25.7571 16.8039C25.9826 17.1459 26.3835 17.2043 26.4253 17.2127Z" fill="#26292E"/>
<path d="M25.0972 22.0513C24.521 22.3767 24.379 23.044 24.3623 23.1191L24.2871 23.4862L24.6546 23.5529C24.7863 23.5812 24.9207 23.5951 25.0555 23.5946C25.3575 23.5953 25.6554 23.5238 25.9241 23.3861C26.5004 23.0857 26.7259 22.41 26.7509 22.3349L26.8679 21.9679L26.5004 21.8678C26.4753 21.8594 25.7571 21.6676 25.0972 22.0513Z" fill="#26292E"/>
<path d="M29.6658 21.9598L29.3818 22.1683L29.5739 22.4603C29.6157 22.527 29.9999 23.0776 30.5678 23.2361C30.6989 23.2692 30.8335 23.286 30.9687 23.2862C31.2864 23.282 31.6006 23.2198 31.8958 23.1026L32.2716 22.9608L32.0962 22.6021C32.0795 22.5687 31.7538 21.9014 31.0439 21.7178C30.8101 21.659 30.5665 21.6502 30.329 21.6918C30.0915 21.7335 29.8655 21.8248 29.6658 21.9598V21.9598Z" fill="#26292E"/>
</svg>
